<?xml version="1.0" encoding="UTF-8" standalone="no"?>
<!DOCTYPE svg PUBLIC "-//W3C//DTD SVG 1.1//EN" "http://www.w3.org/Graphics/SVG/1.1/DTD/svg11.dtd">
<svg xmlns="http://www.w3.org/2000/svg" version="1.1" viewBox="0.00 0.00 1017.00 245.00">
<path fill="#bfff07" d="
  M 518.40 14.10
  A 2.90 2.90 0.0 0 1 521.31 11.21
  L 547.45 11.25
  A 49.12 45.16 0.1 0 1 596.49 56.50
  L 596.47 66.26
  A 49.12 45.16 0.1 0 1 547.27 111.33
  L 521.13 111.29
  A 2.90 2.90 0.0 0 1 518.24 108.38
  L 518.40 14.10
  Z
  M 540.49 32.64
  L 540.49 90.46
  A 0.23 0.23 0.0 0 0 540.72 90.69
  L 546.51 90.69
  A 27.72 26.90 0.0 0 0 574.23 63.79
  L 574.23 59.31
  A 27.72 26.90 0.0 0 0 546.51 32.41
  L 540.72 32.41
  A 0.23 0.23 0.0 0 0 540.49 32.64
  Z"
/>
<path fill="#bfff07" d="
  M 630.50 90.75
  L 674.88 90.75
  A 3.12 3.12 0.0 0 1 678.00 93.87
  L 678.00 108.50
  A 3.25 3.25 0.0 0 1 674.75 111.75
  L 610.91 111.75
  A 2.91 2.91 0.0 0 1 608.00 108.84
  L 608.00 14.28
  A 3.28 3.28 0.0 0 1 611.28 11.00
  L 673.73 11.00
  A 2.83 2.83 0.0 0 1 676.56 13.78
  L 676.82 28.54
  A 3.18 3.18 0.0 0 1 673.64 31.77
  L 630.39 31.71
  A 0.40 0.39 -90.0 0 0 630.00 32.11
  L 629.96 50.48
  Q 629.96 51.00 630.48 51.00
  L 667.00 51.00
  A 2.75 2.75 0.0 0 1 669.75 53.75
  L 669.75 68.71
  A 2.48 2.48 0.0 0 1 667.29 71.19
  L 630.49 71.46
  Q 630.00 71.46 630.00 71.95
  L 630.00 90.25
  Q 630.00 90.75 630.50 90.75
  Z"
/>
<path fill="#bfff07" d="
  M 759.56 15.05
  L 721.75 113.81
  A 3.03 3.03 0.0 0 1 716.10 113.82
  L 677.95 15.19
  A 3.03 3.03 0.0 0 1 680.77 11.07
  L 756.72 10.93
  A 3.03 3.03 0.0 0 1 759.56 15.05
  Z
  M 718.56 66.04
  A 0.35 0.35 0.0 0 0 719.22 66.04
  L 731.73 30.47
  A 0.35 0.35 0.0 0 0 731.40 30.00
  L 706.44 30.00
  A 0.35 0.35 0.0 0 0 706.11 30.47
  L 718.56 66.04
  Z"
/>
<path fill="#bfff07" d="
  M 786.47 51.26
  L 822.71 51.25
  A 3.03 3.03 0.0 0 1 825.75 54.28
  L 825.75 68.61
  A 3.41 3.41 0.0 0 1 822.33 72.02
  L 786.31 71.95
  A 0.30 0.30 0.0 0 0 786.00 72.25
  L 786.00 109.09
  A 2.66 2.66 0.0 0 1 783.34 111.75
  L 767.03 111.75
  A 3.03 3.03 0.0 0 1 764.00 108.72
  L 764.00 14.75
  Q 764.00 11.00 767.75 11.00
  L 831.00 11.00
  A 3.00 3.00 0.0 0 1 834.00 14.00
  L 834.00 29.25
  A 2.75 2.75 0.0 0 1 831.25 32.00
  L 786.50 32.00
  A 0.50 0.50 0.0 0 0 786.00 32.50
  L 786.00 50.79
  Q 786.00 51.26 786.47 51.26
  Z"
/>
<path fill="#bfff07" d="
  M 864.25 90.75
  L 908.87 90.75
  A 2.88 2.87 0.0 0 1 911.75 93.62
  L 911.75 108.50
  A 3.25 3.25 0.0 0 1 908.50 111.75
  L 845.15 111.75
  A 3.35 3.34 0.1 0 1 841.80 108.40
  L 841.87 14.19
  A 3.18 3.18 0.0 0 1 845.05 11.01
  L 907.25 10.99
  A 3.26 3.25 -90.0 0 1 910.50 14.25
  L 910.50 28.75
  A 3.00 2.99 -0.0 0 1 907.50 31.74
  L 864.38 31.74
  Q 863.75 31.74 863.75 32.37
  L 863.75 50.37
  Q 863.75 51.00 864.38 51.00
  L 901.23 51.00
  A 2.46 2.46 0.0 0 1 903.69 53.48
  L 903.55 69.18
  A 2.23 2.22 0.3 0 1 901.32 71.38
  L 864.75 71.25
  A 1.00 1.00 0.0 0 0 863.75 72.25
  L 863.75 90.25
  Q 863.75 90.75 864.25 90.75
  Z"
/>
<path fill="#bfff07" d="
  M 934.00 50.34
  L 921.23 30.50
  Q 921.00 30.14 921.00 29.70
  L 921.00 13.77
  A 2.65 2.65 0.0 0 1 923.60 11.12
  Q 942.09 10.73 959.56 11.40
  Q 968.86 11.76 978.67 17.81
  C 987.67 23.36 991.38 33.42 990.76 43.87
  Q 989.70 61.80 971.61 68.92
  Q 971.06 69.14 971.38 69.65
  L 995.40 108.16
  A 2.35 2.34 74.0 0 1 993.42 111.75
  L 974.30 111.75
  A 3.43 3.43 0.0 0 1 971.40 110.15
  L 947.73 72.44
  Q 947.41 71.93 946.80 71.91
  L 943.61 71.81
  A 0.59 0.59 0.0 0 0 943.00 72.40
  L 943.00 108.25
  Q 943.00 111.75 939.50 111.75
  L 924.00 111.75
  A 3.00 3.00 0.0 0 1 921.00 108.75
  L 921.00 53.75
  A 2.75 2.75 0.0 0 1 923.75 51.00
  L 933.64 51.00
  A 0.43 0.43 0.0 0 0 934.00 50.34
  Z
  M 959.17 50.68
  C 967.51 50.28 972.66 40.46 965.83 34.83
  C 961.55 31.29 953.06 31.69 947.57 32.11
  A 0.41 0.40 71.7 0 0 947.26 32.73
  L 958.42 50.29
  Q 958.68 50.71 959.17 50.68
  Z"
/>
<path fill="#bfff07" d="
  M 386.64 25.00
  C 387.66 22.08 389.09 16.74 392.57 16.58
  Q 399.02 16.28 405.08 16.70
  A 2.20 2.19 -78.3 0 1 406.99 19.62
  Q 390.55 66.41 373.87 113.29
  C 372.50 117.14 372.19 119.70 367.21 119.74
  Q 361.59 119.80 356.50 119.73
  Q 353.36 119.69 354.40 116.73
  Q 370.51 71.04 386.64 25.00
  Z"
/>
<path fill="#e5e3df" d="
  M 152.05 104.74
  L 234.70 104.98
  A 0.30 0.30 0.0 0 1 235.00 105.28
  L 235.00 145.45
  A 0.30 0.30 0.0 0 1 234.70 145.75
  L 152.05 145.75
  A 0.30 0.30 0.0 0 0 151.75 146.05
  L 151.75 227.45
  A 0.30 0.30 0.0 0 1 151.45 227.75
  L 104.80 227.75
  A 0.30 0.30 0.0 0 1 104.50 227.45
  L 104.50 19.05
  A 0.30 0.30 0.0 0 1 104.80 18.75
  L 240.95 18.75
  A 0.30 0.30 0.0 0 1 241.25 19.05
  L 241.25 59.70
  A 0.30 0.30 0.0 0 1 240.95 60.00
  L 152.05 60.00
  A 0.30 0.30 0.0 0 0 151.75 60.30
  L 151.75 104.44
  A 0.30 0.30 0.0 0 0 152.05 104.74
  Z"
/>
<path fill="#e5e3df" d="
  M 93.25 185.98
  L 93.25 227.27
  A 0.48 0.48 0.0 0 1 92.77 227.75
  L 17.23 227.68
  A 0.48 0.48 0.0 0 1 16.75 227.20
  L 16.75 19.98
  A 0.48 0.48 0.0 0 1 17.23 19.50
  L 92.77 19.50
  A 0.48 0.48 0.0 0 1 93.25 19.98
  L 93.25 61.52
  A 0.48 0.48 0.0 0 1 92.77 62.00
  L 64.98 62.00
  A 0.48 0.48 0.0 0 0 64.50 62.48
  L 64.50 185.02
  A 0.48 0.48 0.0 0 0 64.98 185.50
  L 92.77 185.50
  A 0.48 0.48 0.0 0 1 93.25 185.98
  Z"
/>
<path fill="#bfff07" d="
  M 305.79 71.75
  Q 323.84 78.18 341.98 85.02
  C 345.60 86.39 346.26 88.64 346.26 92.48
  Q 346.26 98.76 346.24 104.64
  A 3.21 3.21 0.0 0 1 341.89 107.63
  Q 311.81 96.21 281.41 84.46
  C 277.07 82.78 275.24 82.14 275.24 76.81
  Q 275.24 69.96 275.26 63.46
  A 4.94 4.93 -10.6 0 1 278.42 58.86
  L 341.25 34.73
  A 3.68 3.67 79.3 0 1 346.24 38.14
  C 346.28 44.25 348.54 54.74 341.45 57.47
  Q 323.69 64.29 305.78 70.86
  A 0.47 0.47 0.0 0 0 305.79 71.75
  Z"
/>
<path fill="#bfff07" d="
  M 455.54 71.04
  Q 437.37 64.36 419.18 57.33
  C 415.86 56.04 414.73 54.00 414.74 50.33
  Q 414.77 44.04 414.74 38.01
  A 3.54 3.53 10.4 0 1 419.55 34.70
  L 482.45 58.84
  A 4.76 4.75 -79.5 0 1 485.50 63.28
  L 485.50 79.12
  A 4.51 4.50 -10.5 0 1 482.61 83.32
  L 419.11 107.65
  A 3.21 3.20 79.3 0 1 414.76 104.68
  Q 414.71 97.18 414.78 89.30
  C 414.80 87.32 417.32 85.61 419.29 84.87
  Q 437.29 78.09 455.54 71.63
  A 0.31 0.31 0.0 0 0 455.54 71.04
  Z"
/>
<path fill="#e5e3df" d="
  M 163.00 92.47
  L 163.00 72.00
  Q 163.00 71.50 163.50 71.50
  L 197.56 71.50
  Q 198.18 71.50 198.44 72.07
  Q 203.06 82.15 205.74 92.91
  Q 205.88 93.50 205.28 93.50
  L 163.44 93.50
  Q 163.08 93.50 162.84 93.22
  Q 162.63 92.97 162.90 92.71
  Q 163.00 92.61 163.00 92.47
  Z"
/>
<rect fill="#ffffff" x="-364.49" y="-5.54" transform="translate(635.00,148.58) rotate(-0.1)" width="728.98" height="11.08" rx="0.65"/>
<path fill="#e5e3df" d="
  M 203.63 157.78
  C 196.99 179.09 182.55 197.83 163.55 209.54
  A 0.36 0.36 0.0 0 1 163.00 209.23
  L 163.00 157.75
  A 0.50 0.50 0.0 0 1 163.50 157.25
  L 203.25 157.25
  Q 203.80 157.25 203.63 157.78
  Z"
/>
<path fill="#bfff07" d="
  M 432.14 196.01
  C 432.29 193.48 430.56 192.60 428.31 193.07
  A 1.51 1.51 0.0 0 0 427.81 195.82
  C 431.99 198.46 440.40 201.77 442.89 206.11
  C 446.78 212.92 443.24 220.85 436.18 223.48
  C 426.81 226.97 415.08 222.37 414.99 210.79
  A 1.77 1.77 0.0 0 1 416.75 209.01
  C 419.35 208.99 427.29 207.60 427.18 211.73
  A 1.24 1.24 0.0 0 0 427.48 212.59
  C 430.21 215.79 434.76 212.28 430.61 210.31
  Q 425.24 207.76 421.83 205.67
  C 411.13 199.12 413.75 184.81 426.18 182.40
  C 435.08 180.68 445.17 186.26 444.16 196.44
  A 1.17 1.16 -87.3 0 1 443.00 197.50
  L 433.54 197.49
  A 1.40 1.40 0.0 0 1 432.14 196.01
  Z
  M 442.88 195.31
  C 441.65 180.96 419.58 179.75 417.07 191.77
  C 413.98 206.60 436.05 206.94 433.51 213.62
  A 2.18 2.17 -85.0 0 1 431.89 214.99
  Q 426.47 216.08 425.63 211.01
  Q 425.54 210.50 425.03 210.50
  L 417.01 210.50
  A 0.49 0.49 0.0 0 0 416.52 210.99
  C 416.48 222.55 429.94 225.80 438.18 220.93
  C 444.39 217.27 444.77 207.53 438.44 203.56
  Q 436.03 202.04 427.80 197.73
  C 420.85 194.09 432.30 186.64 433.73 195.35
  Q 433.84 196.00 434.49 196.00
  L 442.25 196.00
  A 0.63 0.63 0.0 0 0 442.88 195.31
  Z"
/>
<path fill="#bfff07" d="
  M 517.00 195.61
  C 517.01 177.62 546.46 177.40 546.65 195.99
  A 1.33 1.33 0.0 0 1 545.40 197.33
  L 535.80 197.88
  Q 534.81 197.94 534.59 196.98
  L 533.91 194.02
  A 1.05 1.05 0.0 0 0 533.30 193.29
  C 530.58 192.08 529.04 193.55 529.02 196.30
  Q 528.94 207.34 529.01 211.00
  C 529.09 215.00 534.90 214.82 534.41 209.67
  A 0.68 0.68 0.0 0 1 535.09 208.92
  L 545.10 209.05
  A 1.69 1.68 -86.6 0 1 546.74 210.91
  Q 545.35 223.91 532.00 224.40
  Q 522.21 224.76 518.20 216.59
  C 515.80 211.69 517.00 201.21 517.00 195.61
  Z
  M 544.99 195.44
  C 545.10 179.57 518.38 179.49 518.21 196.25
  Q 518.14 203.60 518.34 210.93
  C 518.62 220.86 529.24 225.34 537.66 221.90
  Q 543.20 219.64 545.27 212.65
  A 1.65 1.64 -80.4 0 0 543.78 210.54
  L 536.77 210.18
  A 0.75 0.74 7.2 0 0 536.00 210.77
  C 534.69 217.03 527.67 216.49 527.52 210.75
  Q 527.41 206.94 527.53 196.39
  C 527.58 191.92 531.79 189.45 534.92 192.84
  Q 535.26 193.21 535.41 193.69
  L 536.08 195.73
  A 0.80 0.78 -9.7 0 0 536.86 196.27
  L 544.52 195.92
  Q 544.98 195.90 544.99 195.44
  Z"
/>
<path fill="#bfff07" d="
  M 910.9773 210.6264
  A 13.84 13.84 0.0 0 1 897.1132 224.4422
  L 894.5332 224.4377
  A 13.84 13.84 0.0 0 1 880.7174 210.5736
  L 880.7427 196.0536
  A 13.84 13.84 0.0 0 1 894.6068 182.2378
  L 897.1868 182.2423
  A 13.84 13.84 0.0 0 1 911.0026 196.1064
  L 910.9773 210.6264
  Z
  M 909.4172 196.0263
  A 12.27 12.27 0.0 0 0 897.1258 183.7777
  L 894.5058 183.7823
  A 12.27 12.27 0.0 0 0 882.2573 196.0737
  L 882.2828 210.6937
  A 12.27 12.27 0.0 0 0 894.5742 222.9423
  L 897.1942 222.9377
  A 12.27 12.27 0.0 0 0 909.4427 210.6463
  L 909.4172 196.0263
  Z"
/>
<path fill="#bfff07" d="
  M 269.86 182.48
  L 294.87 182.58
  A 1.13 1.13 0.0 0 1 296.00 183.71
  L 296.00 192.12
  A 1.13 1.13 0.0 0 1 294.87 193.25
  L 282.14 193.25
  A 1.13 1.13 0.0 0 0 281.01 194.38
  L 281.01 196.87
  A 1.13 1.13 0.0 0 0 282.14 198.00
  L 289.12 198.00
  A 1.13 1.13 0.0 0 1 290.25 199.13
  L 290.25 207.10
  A 1.13 1.13 0.0 0 1 289.15 208.23
  L 282.10 208.39
  A 1.13 1.13 0.0 0 0 281.00 209.52
  L 281.00 222.87
  A 1.13 1.13 0.0 0 1 279.87 224.00
  L 270.20 224.00
  A 1.13 1.13 0.0 0 1 269.07 222.88
  L 268.73 183.62
  A 1.13 1.13 0.0 0 1 269.86 182.48
  Z
  M 279.51 198.44
  L 279.50 192.75
  A 1.00 0.99 -0.3 0 1 280.50 191.75
  L 293.96 191.75
  A 1.11 1.11 0.0 0 0 295.04 190.37
  Q 294.46 188.01 294.98 185.74
  A 1.30 1.30 0.0 0 0 293.72 184.14
  L 271.74 184.02
  Q 270.25 184.02 270.25 185.51
  L 270.25 221.75
  A 1.00 1.00 0.0 0 0 271.25 222.75
  L 278.87 222.75
  A 0.62 0.61 90.0 0 0 279.48 222.13
  L 279.53 208.48
  Q 279.54 207.00 281.02 207.00
  L 287.91 207.00
  A 1.12 1.11 -1.2 0 0 289.03 205.84
  L 288.83 200.15
  A 0.93 0.93 0.0 0 0 287.90 199.25
  L 280.31 199.24
  A 0.80 0.80 0.0 0 1 279.51 198.44
  Z"
/>
<path fill="#bfff07" d="
  M 298.12 183.75
  A 1.25 1.24 -88.8 0 1 299.38 182.53
  L 309.12 182.67
  A 1.39 1.39 0.0 0 1 310.49 184.06
  Q 310.52 197.84 310.50 211.50
  C 310.49 214.64 315.35 215.01 315.27 209.75
  Q 315.09 196.59 315.48 184.21
  A 1.72 1.72 0.0 0 1 317.25 182.55
  L 326.35 182.83
  A 1.43 1.43 0.0 0 1 327.74 184.25
  Q 327.78 197.20 327.74 210.23
  C 327.69 225.89 306.02 229.71 299.58 216.46
  Q 298.20 213.62 298.09 208.87
  Q 297.81 196.49 298.12 183.75
  Z
  M 322.94 218.69
  Q 325.98 215.63 325.98 212.99
  Q 326.02 198.83 325.99 184.96
  A 0.96 0.96 0.0 0 0 325.03 184.00
  L 317.98 184.00
  A 0.98 0.98 0.0 0 0 317.00 184.98
  Q 317.01 197.53 316.99 210.23
  C 316.99 216.69 308.96 217.45 308.99 209.53
  Q 309.03 197.21 308.99 185.05
  A 0.88 0.88 0.0 0 0 308.11 184.17
  L 300.37 184.17
  Q 299.67 184.17 299.68 184.87
  Q 299.77 196.01 299.77 207.13
  C 299.78 214.74 300.85 220.07 308.42 222.31
  Q 316.86 224.82 322.94 218.69
  Z"
/>
<path fill="#bfff07" d="
  M 332.82 182.51
  L 342.03 182.83
  A 1.52 1.52 0.0 0 1 343.50 184.35
  L 343.50 211.73
  A 1.52 1.52 0.0 0 0 345.02 213.25
  L 357.48 213.26
  A 1.52 1.52 0.0 0 1 359.00 214.78
  L 359.00 222.48
  A 1.52 1.52 0.0 0 1 357.48 224.00
  L 332.77 224.00
  A 1.52 1.52 0.0 0 1 331.25 222.48
  L 331.25 184.02
  A 1.52 1.52 0.0 0 1 332.82 182.51
  Z
  M 356.86 222.75
  A 0.77 0.77 0.0 0 0 357.63 222.00
  L 357.78 215.80
  A 0.77 0.77 0.0 0 0 357.02 215.01
  L 342.76 214.89
  A 0.77 0.77 0.0 0 1 342.00 214.12
  L 342.00 184.77
  A 0.77 0.77 0.0 0 0 341.23 184.00
  L 333.77 184.00
  A 0.77 0.77 0.0 0 0 333.00 184.77
  L 333.00 221.98
  A 0.77 0.77 0.0 0 0 333.77 222.75
  L 356.86 222.75
  Z"
/>
<path fill="#bfff07" d="
  M 363.33 182.46
  L 372.53 182.81
  A 1.53 1.53 0.0 0 1 374.00 184.34
  L 374.00 211.72
  A 1.53 1.53 0.0 0 0 375.53 213.25
  L 387.97 213.25
  A 1.53 1.53 0.0 0 1 389.50 214.78
  L 389.50 222.47
  A 1.53 1.53 0.0 0 1 387.97 224.00
  L 363.29 224.00
  A 1.53 1.53 0.0 0 1 361.76 222.47
  L 361.74 183.99
  A 1.53 1.53 0.0 0 1 363.33 182.46
  Z
  M 363.91 184.17
  A 0.69 0.69 0.0 0 0 363.23 184.86
  L 363.26 222.06
  A 0.69 0.69 0.0 0 0 363.95 222.75
  L 387.31 222.75
  A 0.69 0.69 0.0 0 0 388.00 222.06
  L 388.00 215.70
  A 0.69 0.69 0.0 0 0 387.31 215.01
  L 373.19 214.98
  A 0.69 0.69 0.0 0 1 372.50 214.29
  L 372.50 184.80
  A 0.69 0.69 0.0 0 0 371.80 184.11
  L 363.91 184.17
  Z"
/>
<path fill="#bfff07" d="
  M 491.22 182.48
  L 502.83 182.56
  A 1.51 1.51 0.0 0 1 504.27 183.69
  L 514.43 222.10
  A 1.51 1.51 0.0 0 1 512.97 224.00
  L 503.29 223.99
  A 1.51 1.51 0.0 0 1 501.83 222.84
  L 501.04 219.65
  A 1.51 1.51 0.0 0 0 499.58 218.50
  L 494.17 218.50
  A 1.51 1.51 0.0 0 0 492.70 219.65
  L 491.91 222.85
  A 1.51 1.51 0.0 0 1 490.44 224.00
  L 480.95 224.00
  A 1.51 1.51 0.0 0 1 479.50 222.10
  L 489.75 183.60
  A 1.51 1.51 0.0 0 1 491.22 182.48
  Z
  M 491.90 184.13
  A 0.98 0.98 0.0 0 0 490.97 184.86
  L 481.17 221.52
  A 0.98 0.98 0.0 0 0 482.12 222.75
  L 489.79 222.75
  A 0.98 0.98 0.0 0 0 490.76 221.92
  L 491.40 217.83
  A 0.98 0.98 0.0 0 1 492.37 217.00
  L 501.37 217.00
  A 0.98 0.98 0.0 0 1 502.33 217.80
  L 503.13 221.95
  A 0.98 0.98 0.0 0 0 504.09 222.74
  L 511.77 222.75
  A 0.98 0.98 0.0 0 0 512.71 221.52
  L 502.97 184.71
  A 0.98 0.98 0.0 0 0 502.00 183.98
  L 491.90 184.13
  Z"
/>
<path fill="#bfff07" d="
  M 562.00 193.49
  A 0.33 0.33 0.0 0 0 562.62 193.65
  L 568.05 184.07
  Q 569.02 182.35 571.00 182.42
  L 580.28 182.77
  A 1.16 1.16 0.0 0 1 581.23 184.52
  L 571.73 200.42
  A 1.68 1.68 0.0 0 0 571.67 202.03
  L 581.66 222.15
  A 1.28 1.28 0.0 0 1 580.52 224.00
  L 570.19 224.00
  A 1.58 1.57 -12.3 0 1 568.76 223.09
  L 563.46 211.74
  A 0.76 0.76 0.0 0 0 562.01 212.06
  L 562.00 222.50
  A 1.50 1.50 0.0 0 1 560.50 224.00
  L 551.50 224.00
  Q 549.75 224.00 549.75 222.25
  L 549.76 183.89
  Q 549.76 182.55 551.11 182.55
  L 560.52 182.55
  A 1.48 1.47 -0.0 0 1 562.00 184.02
  L 562.00 193.49
  Z
  M 560.50 196.75
  L 560.50 184.74
  Q 560.50 184.23 559.99 184.22
  L 551.93 184.14
  A 0.67 0.67 0.0 0 0 551.25 184.81
  L 551.25 221.62
  Q 551.25 222.48 552.12 222.51
  L 559.59 222.71
  A 0.90 0.90 0.0 0 0 560.52 221.80
  C 560.46 217.81 559.54 212.42 562.42 209.22
  A 0.88 0.88 0.0 0 1 563.87 209.42
  L 570.08 222.18
  A 1.03 1.02 -13.0 0 0 571.00 222.75
  L 579.29 222.75
  A 0.68 0.68 0.0 0 0 579.90 221.76
  L 569.80 201.62
  Q 569.57 201.17 569.83 200.74
  L 579.28 184.99
  Q 579.88 184.00 578.72 184.00
  L 570.26 184.00
  A 0.90 0.90 0.0 0 0 569.48 184.45
  L 562.24 197.21
  A 0.93 0.93 0.0 0 1 560.50 196.75
  Z"
/>
<path fill="#bfff07" d="
  M 619.41 208.15
  L 617.33 223.71
  A 0.33 0.33 0.0 0 1 617.00 224.00
  L 606.47 224.00
  A 0.33 0.33 0.0 0 1 606.15 223.75
  L 595.88 182.98
  A 0.33 0.33 0.0 0 1 596.20 182.57
  L 608.43 182.48
  A 0.33 0.33 0.0 0 1 608.76 182.75
  L 611.46 197.36
  A 0.33 0.33 0.0 0 0 612.11 197.35
  L 614.40 182.81
  A 0.33 0.33 0.0 0 1 614.72 182.53
  L 624.68 182.60
  A 0.33 0.33 0.0 0 1 625.00 182.87
  L 627.67 197.73
  A 0.33 0.33 0.0 0 0 628.32 197.72
  L 630.54 182.78
  A 0.33 0.33 0.0 0 1 630.87 182.50
  L 643.02 182.61
  A 0.33 0.33 0.0 0 1 643.34 183.01
  L 634.00 223.74
  A 0.33 0.33 0.0 0 1 633.68 224.00
  L 622.92 224.00
  A 0.33 0.33 0.0 0 1 622.60 223.72
  L 620.07 208.14
  A 0.33 0.33 0.0 0 0 619.41 208.15
  Z
  M 611.01 202.57
  L 607.62 184.80
  A 0.87 0.86 -5.2 0 0 606.77 184.10
  L 598.74 184.07
  A 0.76 0.76 0.0 0 0 597.99 185.02
  L 607.20 222.00
  A 0.98 0.97 -6.8 0 0 608.15 222.74
  L 615.22 222.75
  A 0.68 0.68 0.0 0 0 615.89 222.19
  Q 617.46 212.86 618.91 203.52
  Q 619.03 202.74 619.85 202.71
  A 0.74 0.74 0.0 0 1 620.60 203.32
  L 623.73 221.49
  A 1.52 1.52 0.0 0 0 625.23 222.75
  L 632.00 222.75
  A 0.87 0.87 0.0 0 0 632.85 222.07
  L 641.35 185.08
  A 0.83 0.83 0.0 0 0 640.55 184.07
  L 633.02 183.99
  A 1.21 1.20 5.0 0 0 631.82 184.99
  L 628.83 202.49
  A 0.63 0.62 -85.5 0 1 628.23 203.01
  Q 627.17 203.05 626.98 201.99
  Q 625.46 193.37 623.82 184.64
  A 0.63 0.63 0.0 0 0 623.22 184.14
  L 616.80 184.11
  A 1.29 1.29 0.0 0 0 615.53 185.19
  L 612.65 202.55
  A 0.83 0.83 0.0 0 1 611.01 202.57
  Z"
/>
<path fill="#bfff07" d="
  M 646.87 182.44
  L 672.09 182.81
  A 1.12 1.12 0.0 0 1 673.19 183.92
  L 673.28 192.12
  A 1.12 1.12 0.0 0 1 672.16 193.25
  L 659.13 193.25
  A 1.12 1.12 0.0 0 0 658.01 194.36
  L 658.00 196.87
  A 1.12 1.12 0.0 0 0 659.12 197.99
  L 666.26 197.96
  A 1.12 1.12 0.0 0 1 667.38 199.10
  L 667.20 207.34
  A 1.12 1.12 0.0 0 1 666.09 208.43
  L 659.12 208.45
  A 1.12 1.12 0.0 0 0 658.01 209.56
  L 657.99 212.13
  A 1.12 1.12 0.0 0 0 659.11 213.25
  L 672.14 213.25
  A 1.12 1.12 0.0 0 1 673.26 214.38
  L 673.23 222.89
  A 1.12 1.12 0.0 0 1 672.11 224.00
  L 646.90 224.00
  A 1.12 1.12 0.0 0 1 645.78 222.88
  L 645.73 183.56
  A 1.12 1.12 0.0 0 1 646.87 182.44
  Z
  M 657.55 214.94
  A 0.80 0.80 0.0 0 1 656.75 214.14
  L 656.75 207.80
  A 0.80 0.80 0.0 0 1 657.55 207.00
  L 665.20 207.00
  A 0.80 0.80 0.0 0 0 666.00 206.20
  L 666.00 200.05
  A 0.80 0.80 0.0 0 0 665.20 199.25
  L 657.56 199.25
  A 0.80 0.80 0.0 0 1 656.76 198.45
  L 656.74 192.55
  A 0.80 0.80 0.0 0 1 657.54 191.75
  L 670.92 191.75
  A 0.80 0.80 0.0 0 0 671.72 190.96
  L 671.83 184.76
  A 0.80 0.80 0.0 0 0 671.02 183.95
  L 648.26 184.11
  A 0.80 0.80 0.0 0 0 647.47 184.91
  L 647.51 221.95
  A 0.80 0.80 0.0 0 0 648.31 222.75
  L 670.95 222.75
  A 0.80 0.80 0.0 0 0 671.75 221.95
  L 671.75 215.83
  A 0.80 0.80 0.0 0 0 670.95 215.03
  L 657.55 214.94
  Z"
/>
<path fill="#bfff07" d="
  M 676.43 222.96
  L 676.34 183.67
  Q 676.34 182.79 677.21 182.74
  C 684.39 182.28 695.70 181.43 701.10 185.33
  C 705.17 188.28 707.74 197.74 702.29 201.81
  A 0.94 0.94 0.0 0 0 702.27 203.30
  C 703.99 204.64 705.30 206.62 705.65 208.87
  C 708.49 227.01 688.22 224.09 677.44 223.98
  A 1.02 1.02 0.0 0 1 676.43 222.96
  Z
  M 698.98 221.13
  C 704.67 218.48 705.94 211.42 703.04 206.22
  C 702.37 205.01 701.12 204.13 700.16 203.00
  Q 699.81 202.59 700.16 202.17
  C 701.39 200.70 702.91 199.52 703.35 197.60
  C 707.03 181.29 688.01 184.37 679.08 183.95
  A 1.02 1.02 0.0 0 0 678.00 184.97
  L 678.00 222.00
  A 0.61 0.60 -88.0 0 0 678.56 222.61
  C 684.09 223.01 693.90 223.49 698.98 221.13
  Z"
/>
<path fill="#bfff07" d="
  M 721.96 184.53
  A 1.84 1.84 0.0 0 1 723.79 182.68
  L 737.83 182.66
  A 13.66 12.53 -0.1 0 1 751.52 195.16
  L 751.54 211.40
  A 13.66 12.53 -0.1 0 1 737.91 223.96
  L 723.87 223.98
  A 1.84 1.84 0.0 0 1 722.02 222.15
  L 721.96 184.53
  Z
  M 723.73 184.79
  L 723.61 221.81
  A 0.80 0.80 0.0 0 0 724.40 222.62
  L 737.31 222.66
  A 12.65 11.13 0.2 0 0 750.00 211.58
  L 750.06 195.22
  A 12.65 11.13 0.2 0 0 737.45 184.04
  L 724.54 184.00
  A 0.80 0.80 0.0 0 0 723.73 184.79
  Z"
/>
<path fill="#bfff07" d="
  M 755.65 182.70
  L 781.01 182.77
  A 1.24 1.24 0.0 0 1 782.25 184.01
  L 782.25 191.50
  A 1.75 1.75 0.0 0 1 780.50 193.25
  L 767.65 193.25
  A 0.66 0.66 0.0 0 0 766.99 193.92
  L 767.04 197.13
  Q 767.05 197.89 767.81 197.90
  L 775.48 198.01
  A 0.78 0.78 0.0 0 1 776.25 198.79
  L 776.25 207.39
  A 0.73 0.72 -5.9 0 1 775.67 208.10
  Q 771.81 208.91 767.93 208.24
  A 0.80 0.79 4.9 0 0 767.00 209.02
  L 767.00 212.63
  Q 767.00 213.25 767.63 213.25
  L 780.50 213.25
  A 1.75 1.75 0.0 0 1 782.25 215.00
  L 782.25 222.50
  A 1.50 1.50 0.0 0 1 780.75 224.00
  L 755.87 224.00
  A 0.94 0.94 0.0 0 1 754.93 223.06
  L 754.81 183.54
  A 0.84 0.84 0.0 0 1 755.65 182.70
  Z
  M 780.14 222.75
  A 0.75 0.75 0.0 0 0 780.89 221.98
  L 780.70 215.74
  A 0.75 0.75 0.0 0 0 779.95 215.02
  L 766.50 214.96
  A 0.75 0.75 0.0 0 1 765.75 214.21
  L 765.75 207.75
  A 0.75 0.75 0.0 0 1 766.50 207.00
  L 774.25 206.99
  A 0.75 0.75 0.0 0 0 775.00 206.24
  L 775.00 199.96
  A 0.75 0.75 0.0 0 0 774.24 199.21
  L 766.51 199.26
  A 0.75 0.75 0.0 0 1 765.75 198.51
  L 765.75 192.50
  A 0.75 0.75 0.0 0 1 766.50 191.75
  L 780.13 191.75
  A 0.75 0.75 0.0 0 0 780.88 190.98
  L 780.69 184.73
  A 0.75 0.75 0.0 0 0 779.94 184.00
  L 757.22 184.00
  A 0.75 0.75 0.0 0 0 756.47 184.75
  L 756.51 222.00
  A 0.75 0.75 0.0 0 0 757.26 222.75
  L 780.14 222.75
  Z"
/>
<path fill="#bfff07" d="
  M 804.96 182.75
  L 817.24 182.75
  A 0.34 0.34 0.0 0 1 817.57 183.17
  L 807.19 223.74
  A 0.34 0.34 0.0 0 1 806.86 224.00
  L 794.84 224.00
  A 0.34 0.34 0.0 0 1 794.52 223.74
  L 784.16 182.87
  A 0.34 0.34 0.0 0 1 784.50 182.45
  L 797.14 182.77
  A 0.34 0.34 0.0 0 1 797.47 183.05
  L 800.82 201.64
  A 0.34 0.34 0.0 0 0 801.49 201.64
  L 804.62 183.03
  A 0.34 0.34 0.0 0 1 804.96 182.75
  Z
  M 805.12 222.75
  A 0.95 0.95 0.0 0 0 806.04 222.04
  L 815.52 185.19
  A 0.95 0.95 0.0 0 0 814.60 184.00
  L 806.91 184.00
  A 0.95 0.95 0.0 0 0 805.98 184.78
  L 802.04 206.29
  A 0.95 0.95 0.0 0 1 800.17 206.29
  L 796.22 184.78
  A 0.95 0.95 0.0 0 0 795.29 184.00
  L 787.24 184.00
  A 0.95 0.95 0.0 0 0 786.32 185.18
  L 795.64 222.03
  A 0.95 0.95 0.0 0 0 796.56 222.75
  L 805.12 222.75
  Z"
/>
<path fill="#bfff07" d="
  M 833.62 197.98
  L 840.63 197.96
  A 1.12 1.12 0.0 0 1 841.75 199.08
  L 841.75 207.47
  A 1.12 1.12 0.0 0 1 840.58 208.59
  L 833.46 208.31
  A 1.12 1.12 0.0 0 0 832.30 209.42
  L 832.29 212.13
  A 1.12 1.12 0.0 0 0 833.41 213.25
  L 846.38 213.25
  A 1.12 1.12 0.0 0 1 847.50 214.37
  L 847.50 222.88
  A 1.12 1.12 0.0 0 1 846.38 224.00
  L 821.31 224.00
  A 1.12 1.12 0.0 0 1 820.19 222.89
  L 820.00 183.94
  A 1.12 1.12 0.0 0 1 821.10 182.82
  L 846.44 182.56
  A 1.12 1.12 0.0 0 1 847.57 183.70
  L 847.46 192.14
  A 1.12 1.12 0.0 0 1 846.35 193.24
  L 833.62 193.25
  A 1.12 1.12 0.0 0 0 832.50 194.37
  L 832.50 196.86
  A 1.12 1.12 0.0 0 0 833.62 197.98
  Z
  M 831.83 214.91
  A 0.80 0.80 0.0 0 1 831.03 214.11
  L 830.99 207.81
  A 0.80 0.80 0.0 0 1 831.79 207.00
  L 839.41 207.00
  A 0.80 0.80 0.0 0 0 840.21 206.16
  L 839.93 199.98
  A 0.80 0.80 0.0 0 0 839.13 199.21
  L 831.80 199.25
  A 0.80 0.80 0.0 0 1 831.00 198.45
  L 831.00 192.55
  A 0.80 0.80 0.0 0 1 831.80 191.75
  L 845.25 191.75
  A 0.80 0.80 0.0 0 0 846.05 190.94
  L 845.98 184.86
  A 0.80 0.80 0.0 0 0 845.18 184.07
  L 822.81 183.97
  A 0.80 0.80 0.0 0 0 822.01 184.77
  L 821.92 221.95
  A 0.80 0.80 0.0 0 0 822.72 222.75
  L 845.20 222.75
  A 0.80 0.80 0.0 0 0 846.00 221.95
  L 846.00 215.84
  A 0.80 0.80 0.0 0 0 845.21 215.04
  L 831.83 214.91
  Z"
/>
<path fill="#bfff07" d="
  M 852.03 182.68
  L 861.43 182.56
  A 1.55 1.55 0.0 0 1 863.00 184.11
  L 863.00 211.70
  A 1.55 1.55 0.0 0 0 864.55 213.25
  L 876.70 213.25
  A 1.55 1.55 0.0 0 1 878.25 214.80
  L 878.25 222.45
  A 1.55 1.55 0.0 0 1 876.70 224.00
  L 852.05 224.00
  A 1.55 1.55 0.0 0 1 850.50 222.45
  L 850.50 184.23
  A 1.55 1.55 0.0 0 1 852.03 182.68
  Z
  M 875.91 222.77
  A 0.91 0.91 0.0 0 0 876.82 221.88
  L 876.98 215.93
  A 0.91 0.91 0.0 0 0 876.07 215.00
  L 862.16 215.00
  A 0.91 0.91 0.0 0 1 861.25 214.09
  L 861.25 185.10
  A 0.91 0.91 0.0 0 0 860.35 184.19
  L 852.92 184.12
  A 0.91 0.91 0.0 0 0 852.00 185.03
  L 852.00 221.80
  A 0.91 0.91 0.0 0 0 852.91 222.71
  L 875.91 222.77
  Z"
/>
<path fill="#bfff07" d="
  M 914.00 184.03
  A 1.40 1.40 0.0 0 1 915.41 182.63
  Q 923.47 182.68 931.11 182.85
  C 949.22 183.26 948.70 211.50 927.51 209.38
  A 1.15 1.15 0.0 0 0 926.25 210.52
  L 926.25 222.50
  A 1.50 1.50 0.0 0 1 924.75 224.00
  L 915.91 224.00
  A 1.91 1.90 -0.0 0 1 914.00 222.10
  L 914.00 184.03
  Z
  M 915.73 222.08
  Q 915.73 222.74 916.39 222.74
  L 924.12 222.75
  A 0.88 0.87 0.0 0 0 925.00 221.88
  L 925.00 209.27
  A 1.29 1.28 1.1 0 1 926.34 207.99
  C 935.47 208.37 942.91 205.98 942.22 195.18
  C 941.35 181.44 926.03 183.57 916.32 184.29
  Q 915.74 184.33 915.74 184.91
  L 915.73 222.08
  Z"
/>
<path fill="#bfff07" d="
  M 978.43 182.72
  C 984.74 182.31 996.06 181.33 1001.16 184.91
  C 1007.75 189.52 1009.16 201.07 1001.80 206.13
  A 1.26 1.26 0.0 0 0 1001.34 207.61
  L 1006.96 222.23
  A 1.30 1.30 0.0 0 1 1005.75 223.99
  L 996.17 224.00
  A 2.02 2.01 -9.2 0 1 994.26 222.63
  L 989.96 209.54
  A 0.42 0.42 0.0 0 0 989.15 209.63
  C 988.69 214.01 990.19 219.42 988.74 223.42
  A 0.87 0.86 -79.8 0 1 987.93 223.99
  L 978.25 224.00
  A 1.25 1.25 0.0 0 1 977.00 222.75
  L 977.00 184.25
  Q 977.00 182.82 978.43 182.72
  Z
  M 987.75 208.55
  A 1.63 1.62 -54.5 0 1 990.91 208.02
  L 995.76 222.22
  A 0.80 0.78 -9.2 0 0 996.51 222.75
  L 1004.75 222.75
  A 0.60 0.60 0.0 0 0 1005.31 221.94
  L 999.68 207.27
  A 1.39 1.39 0.0 0 1 1000.19 205.62
  C 1006.90 201.03 1007.03 189.88 999.93 185.76
  C 995.45 183.16 985.56 184.16 979.67 184.11
  Q 978.50 184.11 978.50 185.27
  L 978.50 222.09
  Q 978.50 222.74 979.15 222.74
  L 987.00 222.75
  Q 987.75 222.75 987.75 222.00
  L 987.75 208.55
  Z"
/>
<path fill="#bfff07" d="
  M 448.00 182.75
  L 475.80 182.75
  A 1.45 1.45 0.0 0 1 477.25 184.20
  L 477.25 191.79
  A 1.45 1.45 0.0 0 1 475.80 193.24
  L 469.45 193.26
  A 1.45 1.45 0.0 0 0 468.00 194.71
  L 468.00 222.55
  A 1.45 1.45 0.0 0 1 466.55 224.00
  L 457.20 224.00
  A 1.45 1.45 0.0 0 1 455.75 222.55
  L 455.75 194.70
  A 1.45 1.45 0.0 0 0 454.30 193.25
  L 447.92 193.25
  A 1.45 1.45 0.0 0 1 446.47 191.79
  L 446.55 184.19
  A 1.45 1.45 0.0 0 1 448.00 182.75
  Z
  M 456.02 191.75
  A 1.02 1.02 0.0 0 1 457.04 192.77
  L 457.08 221.75
  A 1.02 1.02 0.0 0 0 458.11 222.77
  L 465.49 222.70
  A 1.02 1.02 0.0 0 0 466.50 221.68
  L 466.50 192.77
  A 1.02 1.02 0.0 0 1 467.52 191.75
  L 474.71 191.75
  A 1.02 1.02 0.0 0 0 475.73 190.75
  L 475.84 185.08
  A 1.02 1.02 0.0 0 0 474.82 184.04
  L 449.00 183.98
  A 1.02 1.02 0.0 0 0 447.97 185.02
  L 448.06 190.74
  A 1.02 1.02 0.0 0 0 449.08 191.75
  L 456.02 191.75
  Z"
/>
<path fill="#bfff07" d="
  M 973.93 222.69
  A 1.42 1.41 -87.8 0 1 972.52 224.00
  L 947.75 224.00
  A 1.00 1.00 0.0 0 1 946.75 223.00
  L 946.75 183.75
  A 1.00 1.00 0.0 0 1 947.75 182.75
  L 973.35 182.75
  A 0.60 0.60 0.0 0 1 973.95 183.35
  L 974.02 191.73
  A 1.50 1.50 0.0 0 1 972.52 193.25
  L 959.66 193.25
  A 0.65 0.65 0.0 0 0 959.01 193.90
  L 959.01 197.36
  A 0.65 0.64 89.1 0 0 959.67 198.01
  L 966.75 197.84
  A 1.22 1.22 0.0 0 1 968.00 199.06
  L 968.00 206.84
  A 1.65 1.65 0.0 0 1 966.35 208.49
  L 959.62 208.50
  A 0.63 0.63 0.0 0 0 959.00 209.13
  L 959.00 212.72
  Q 959.00 213.21 959.49 213.22
  Q 965.77 213.32 972.00 213.24
  Q 974.24 213.21 974.11 215.21
  C 973.95 217.72 974.12 220.20 973.93 222.69
  Z
  M 957.26 208.02
  A 0.99 0.99 0.0 0 1 958.24 207.01
  L 965.76 206.99
  A 0.99 0.99 0.0 0 0 966.75 206.00
  L 966.75 200.24
  A 0.99 0.99 0.0 0 0 965.76 199.25
  L 958.24 199.25
  A 0.99 0.99 0.0 0 1 957.25 198.26
  L 957.25 192.74
  A 0.99 0.99 0.0 0 1 958.24 191.75
  L 971.55 191.75
  A 0.99 0.99 0.0 0 0 972.54 190.78
  L 972.64 185.01
  A 0.99 0.99 0.0 0 0 971.65 184.00
  L 949.21 184.00
  A 0.99 0.99 0.0 0 0 948.22 184.98
  L 948.02 221.75
  A 0.99 0.99 0.0 0 0 949.01 222.75
  L 971.75 222.75
  A 0.99 0.99 0.0 0 0 972.74 221.76
  L 972.75 215.99
  A 0.99 0.99 0.0 0 0 971.76 215.00
  L 958.40 215.00
  A 0.99 0.99 0.0 0 1 957.41 214.04
  L 957.26 208.02
  Z"
/>
<path fill="#bfff07" d="
  M 900.1766 210.9877
  A 4.21 4.21 0.0 0 1 895.9592 215.1903
  L 895.5992 215.1897
  A 4.21 4.21 0.0 0 1 891.3966 210.9723
  L 891.4234 195.5923
  A 4.21 4.21 0.0 0 1 895.6408 191.3897
  L 896.0008 191.3903
  A 4.21 4.21 0.0 0 1 900.2034 195.6077
  L 900.1766 210.9877
  Z
  M 898.70 195.75
  A 2.75 2.75 0.0 0 0 895.95 193.00
  L 895.77 193.00
  A 2.75 2.75 0.0 0 0 893.02 195.75
  L 893.02 211.15
  A 2.75 2.75 0.0 0 0 895.77 213.90
  L 895.95 213.90
  A 2.75 2.75 0.0 0 0 898.70 211.15
  L 898.70 195.75
  Z"
/>
<path fill="#bfff07" d="
  M 687.02 193.40
  A 1.73 1.73 0.0 0 1 688.77 191.70
  L 690.26 191.72
  A 4.56 3.69 0.9 0 1 694.76 195.48
  L 694.75 196.12
  A 4.56 3.69 0.9 0 1 690.14 199.74
  L 688.65 199.72
  A 1.73 1.73 0.0 0 1 686.94 197.96
  L 687.02 193.40
  Z
  M 688.72 193.86
  L 688.74 197.40
  A 0.62 0.62 0.0 0 0 689.36 198.02
  L 690.86 198.01
  A 2.40 2.22 -0.2 0 0 693.25 195.78
  L 693.25 195.44
  A 2.40 2.22 -0.2 0 0 690.84 193.23
  L 689.34 193.24
  A 0.62 0.62 0.0 0 0 688.72 193.86
  Z"
/>
<path fill="#bfff07" d="
  M 732.73 193.66
  A 1.95 1.95 0.0 0 1 734.68 191.71
  L 735.86 191.71
  A 5.40 5.17 90.0 0 1 741.03 197.11
  L 741.03 209.57
  A 5.40 5.17 90.0 0 1 735.86 214.97
  L 734.68 214.97
  A 1.95 1.95 0.0 0 1 732.73 213.02
  L 732.73 193.66
  Z
  M 739.2044 194.7929
  A 1.42 1.42 0.0 0 0 737.7918 193.3655
  L 735.7519 193.3548
  A 1.42 1.42 0.0 0 0 734.3244 194.7673
  L 734.2356 211.7271
  A 1.42 1.42 0.0 0 0 735.6482 213.1545
  L 737.6881 213.1652
  A 1.42 1.42 0.0 0 0 739.1156 211.7527
  L 739.2044 194.7929
  Z"
/>
<path fill="#bfff07" d="
  M 924.97 192.93
  A 1.20 1.20 0.0 0 1 926.17 191.73
  L 928.55 191.73
  A 4.46 4.02 -0.0 0 1 933.01 195.75
  L 933.01 197.21
  A 4.46 4.02 -0.0 0 1 928.55 201.23
  L 926.17 201.23
  A 1.20 1.20 0.0 0 1 924.97 200.03
  L 924.97 192.93
  Z
  M 926.26 194.21
  L 926.26 198.77
  A 0.98 0.98 0.0 0 0 927.24 199.75
  L 928.25 199.75
  A 3.49 3.13 0.0 0 0 931.74 196.62
  L 931.74 196.36
  A 3.49 3.13 0.0 0 0 928.25 193.23
  L 927.24 193.23
  A 0.98 0.98 0.0 0 0 926.26 194.21
  Z"
/>
<path fill="#bfff07" d="
  M 987.76 192.96
  A 1.22 1.22 0.0 0 1 988.98 191.74
  L 991.69 191.75
  A 4.33 4.15 0.1 0 1 996.01 195.91
  L 996.01 196.35
  A 4.33 4.15 0.1 0 1 991.67 200.49
  L 988.96 200.48
  A 1.22 1.22 0.0 0 1 987.74 199.26
  L 987.76 192.96
  Z
  M 988.99 194.36
  L 988.99 197.88
  A 1.13 1.13 0.0 0 0 990.11 199.01
  L 991.65 199.01
  A 2.85 2.76 0.1 0 0 994.51 196.25
  L 994.51 195.99
  A 2.85 2.76 0.1 0 0 991.67 193.23
  L 990.13 193.23
  A 1.13 1.13 0.0 0 0 988.99 194.36
  Z"
/>
<path fill="#bfff07" d="
  M 493.38 209.09
  L 495.87 197.49
  A 0.97 0.97 0.0 0 1 497.76 197.48
  L 500.37 209.05
  A 0.97 0.97 0.0 0 1 499.43 210.24
  L 494.33 210.26
  A 0.97 0.97 0.0 0 1 493.38 209.09
  Z
  M 494.97 208.66
  A 0.31 0.31 0.0 0 0 495.28 209.03
  L 498.43 208.98
  A 0.31 0.31 0.0 0 0 498.73 208.60
  L 497.02 200.43
  A 0.31 0.31 0.0 0 0 496.41 200.44
  L 494.97 208.66
  Z"
/>
<path fill="#bfff07" d="
  M 412.6464 210.6318
  A 1.60 1.60 0.0 0 1 411.0491 212.2345
  L 393.3492 212.2654
  A 1.60 1.60 0.0 0 1 391.7464 210.6682
  L 391.7336 203.3682
  A 1.60 1.60 0.0 0 1 393.3309 201.7655
  L 411.0308 201.7346
  A 1.60 1.60 0.0 0 1 412.6336 203.3318
  L 412.6464 210.6318
  Z
  M 411.2293 204.0382
  A 0.85 0.85 0.0 0 0 410.3764 203.1912
  L 393.8565 203.2489
  A 0.85 0.85 0.0 0 0 393.0094 204.1018
  L 393.0307 210.1818
  A 0.85 0.85 0.0 0 0 393.8836 211.0288
  L 410.4035 210.9711
  A 0.85 0.85 0.0 0 0 411.2506 210.1182
  L 411.2293 204.0382
  Z"
/>
<path fill="#bfff07" d="
  M 687.00 208.16
  A 1.93 1.93 0.0 0 1 688.94 206.23
  L 690.95 206.24
  A 4.30 4.22 0.2 0 1 695.23 210.47
  L 695.23 210.73
  A 4.30 4.22 0.2 0 1 690.91 214.94
  L 688.90 214.93
  A 1.93 1.93 0.0 0 1 686.98 213.00
  L 687.00 208.16
  Z
  M 688.46 208.90
  L 688.54 212.26
  A 1.08 1.08 0.0 0 0 689.65 213.31
  L 691.21 213.27
  A 2.62 2.47 -1.5 0 0 693.77 210.73
  L 693.75 210.15
  A 2.62 2.47 -1.5 0 0 691.07 207.75
  L 689.51 207.79
  A 1.08 1.08 0.0 0 0 688.46 208.90
  Z"
/>
</svg>
